<mxfile host="app.diagrams.net" modified="2023-09-29T11:18:48.788Z" agent="Mozilla/5.0 (Windows NT 10.0; Win64; x64) AppleWebKit/537.36 (KHTML, like Gecko) Chrome/117.0.0.0 Safari/537.36" etag="ygpmfZiOC__08u1ZRpCh" version="21.8.0" type="device">
  <diagram name="Страница — 1" id="-HP0e-X04fOhVQScLoT2">
    <mxGraphModel dx="2514" dy="929" grid="1" gridSize="10" guides="1" tooltips="1" connect="1" arrows="1" fold="1" page="1" pageScale="1" pageWidth="827" pageHeight="1169" math="0" shadow="0">
      <root>
        <mxCell id="0" />
        <mxCell id="1" parent="0" />
        <mxCell id="filIzlQRj2zayBFvOBdH-182" value="" style="rounded=0;whiteSpace=wrap;html=1;dashed=1;" vertex="1" parent="1">
          <mxGeometry x="-390" y="110" width="420" height="696" as="geometry" />
        </mxCell>
        <mxCell id="filIzlQRj2zayBFvOBdH-2" value="&lt;font style=&quot;vertical-align: inherit;&quot;&gt;&lt;font style=&quot;vertical-align: inherit;&quot;&gt;Начало&lt;/font&gt;&lt;/font&gt;" style="text;html=1;align=center;verticalAlign=middle;resizable=0;points=[];autosize=1;strokeColor=none;fillColor=none;container=0;" vertex="1" parent="1">
          <mxGeometry x="-355" y="190" width="70" height="30" as="geometry" />
        </mxCell>
        <mxCell id="filIzlQRj2zayBFvOBdH-3" value="" style="shape=waypoint;sketch=0;fillStyle=solid;size=6;pointerEvents=1;points=[];fillColor=none;resizable=0;rotatable=0;perimeter=centerPerimeter;snapToPoint=1;container=0;" vertex="1" parent="1">
          <mxGeometry x="-300" y="195" width="20" height="20" as="geometry" />
        </mxCell>
        <mxCell id="filIzlQRj2zayBFvOBdH-4" value="" style="endArrow=classic;html=1;rounded=0;" edge="1" parent="1">
          <mxGeometry width="50" height="50" relative="1" as="geometry">
            <mxPoint x="-290.5" y="202" as="sourcePoint" />
            <mxPoint x="-290" y="242" as="targetPoint" />
          </mxGeometry>
        </mxCell>
        <mxCell id="filIzlQRj2zayBFvOBdH-8" value="" style="endArrow=classic;html=1;rounded=0;" edge="1" parent="1">
          <mxGeometry width="50" height="50" relative="1" as="geometry">
            <mxPoint x="-255" y="262" as="sourcePoint" />
            <mxPoint x="-215" y="262" as="targetPoint" />
          </mxGeometry>
        </mxCell>
        <mxCell id="filIzlQRj2zayBFvOBdH-27" value="" style="html=1;whiteSpace=wrap;aspect=fixed;shape=isoRectangle;container=0;" vertex="1" parent="1">
          <mxGeometry x="-190" y="363" width="48.33" height="29" as="geometry" />
        </mxCell>
        <mxCell id="filIzlQRj2zayBFvOBdH-28" value="&lt;font style=&quot;vertical-align: inherit;&quot;&gt;&lt;font style=&quot;vertical-align: inherit;&quot;&gt;&lt;font style=&quot;vertical-align: inherit;&quot;&gt;&lt;font style=&quot;vertical-align: inherit;&quot;&gt;&lt;font style=&quot;vertical-align: inherit;&quot;&gt;&lt;font style=&quot;vertical-align: inherit;&quot;&gt;&lt;font style=&quot;vertical-align: inherit;&quot;&gt;&lt;font style=&quot;vertical-align: inherit;&quot;&gt;(Возможна поставка)&lt;/font&gt;&lt;/font&gt;&lt;/font&gt;&lt;/font&gt;&lt;/font&gt;&lt;/font&gt;&lt;/font&gt;&lt;/font&gt;" style="endArrow=block;endSize=16;endFill=0;html=1;rounded=0;exitX=0.5;exitY=1;exitDx=0;exitDy=0;" edge="1" parent="1">
          <mxGeometry width="160" relative="1" as="geometry">
            <mxPoint x="-165" y="286" as="sourcePoint" />
            <mxPoint x="-165" y="362" as="targetPoint" />
            <mxPoint as="offset" />
          </mxGeometry>
        </mxCell>
        <mxCell id="filIzlQRj2zayBFvOBdH-31" value="&lt;font style=&quot;vertical-align: inherit;&quot;&gt;&lt;font style=&quot;vertical-align: inherit;&quot;&gt;&lt;font style=&quot;vertical-align: inherit;&quot;&gt;&lt;font style=&quot;vertical-align: inherit;&quot;&gt;(Да)&lt;/font&gt;&lt;/font&gt;&lt;/font&gt;&lt;/font&gt;" style="endArrow=block;endSize=16;endFill=0;html=1;rounded=0;exitX=0.597;exitY=1;exitDx=0;exitDy=0;exitPerimeter=0;" edge="1" parent="1" source="filIzlQRj2zayBFvOBdH-27">
          <mxGeometry width="160" relative="1" as="geometry">
            <mxPoint x="-10" y="432" as="sourcePoint" />
            <mxPoint x="-160" y="462" as="targetPoint" />
          </mxGeometry>
        </mxCell>
        <mxCell id="filIzlQRj2zayBFvOBdH-43" value="&lt;font style=&quot;vertical-align: inherit;&quot;&gt;&lt;font style=&quot;vertical-align: inherit;&quot;&gt;&lt;font style=&quot;vertical-align: inherit;&quot;&gt;&lt;font style=&quot;vertical-align: inherit;&quot;&gt;(Нет)&lt;/font&gt;&lt;/font&gt;&lt;/font&gt;&lt;/font&gt;" style="text;html=1;strokeColor=none;fillColor=none;align=center;verticalAlign=middle;whiteSpace=wrap;rounded=0;container=0;" vertex="1" parent="1">
          <mxGeometry x="-360" y="542" width="60" height="30" as="geometry" />
        </mxCell>
        <mxCell id="filIzlQRj2zayBFvOBdH-46" value="" style="endArrow=classic;html=1;rounded=0;" edge="1" parent="1">
          <mxGeometry width="50" height="50" relative="1" as="geometry">
            <mxPoint x="-330" y="792" as="sourcePoint" />
            <mxPoint x="-205" y="792" as="targetPoint" />
            <Array as="points">
              <mxPoint x="-255" y="792" />
            </Array>
          </mxGeometry>
        </mxCell>
        <mxCell id="filIzlQRj2zayBFvOBdH-50" value="&lt;font style=&quot;vertical-align: inherit;&quot;&gt;&lt;font style=&quot;vertical-align: inherit;&quot;&gt;В течении 10 дней&lt;/font&gt;&lt;/font&gt;" style="shape=note;size=20;whiteSpace=wrap;html=1;container=0;" vertex="1" parent="1">
          <mxGeometry x="-325" y="392" width="105" height="55" as="geometry" />
        </mxCell>
        <mxCell id="filIzlQRj2zayBFvOBdH-52" value="" style="endArrow=classic;html=1;rounded=0;exitX=0;exitY=0.5;exitDx=0;exitDy=0;exitPerimeter=0;" edge="1" parent="1">
          <mxGeometry width="50" height="50" relative="1" as="geometry">
            <mxPoint x="-115" y="478.5" as="sourcePoint" />
            <mxPoint x="-70" y="479" as="targetPoint" />
          </mxGeometry>
        </mxCell>
        <mxCell id="filIzlQRj2zayBFvOBdH-57" value="" style="endArrow=none;dashed=1;html=1;dashPattern=1 3;strokeWidth=2;rounded=0;" edge="1" parent="1">
          <mxGeometry width="50" height="50" relative="1" as="geometry">
            <mxPoint x="-267" y="492" as="sourcePoint" />
            <mxPoint x="-267.5" y="448" as="targetPoint" />
          </mxGeometry>
        </mxCell>
        <mxCell id="filIzlQRj2zayBFvOBdH-62" value="&lt;font style=&quot;vertical-align: inherit;&quot;&gt;&lt;font style=&quot;vertical-align: inherit;&quot;&gt;&lt;font style=&quot;vertical-align: inherit;&quot;&gt;&lt;font style=&quot;vertical-align: inherit;&quot;&gt;(Счёт оплачен)&lt;/font&gt;&lt;/font&gt;&lt;/font&gt;&lt;/font&gt;" style="endArrow=block;endSize=16;endFill=0;html=1;rounded=0;exitX=0.5;exitY=1;exitDx=0;exitDy=0;" edge="1" parent="1">
          <mxGeometry width="160" relative="1" as="geometry">
            <mxPoint x="-262.5" y="530" as="sourcePoint" />
            <mxPoint x="-262" y="602" as="targetPoint" />
            <mxPoint as="offset" />
          </mxGeometry>
        </mxCell>
        <mxCell id="filIzlQRj2zayBFvOBdH-64" value="" style="endArrow=classic;html=1;rounded=0;" edge="1" parent="1">
          <mxGeometry width="50" height="50" relative="1" as="geometry">
            <mxPoint x="-30" y="522" as="sourcePoint" />
            <mxPoint x="-220" y="522" as="targetPoint" />
          </mxGeometry>
        </mxCell>
        <mxCell id="filIzlQRj2zayBFvOBdH-66" value="" style="html=1;whiteSpace=wrap;aspect=fixed;shape=isoRectangle;container=0;" vertex="1" parent="1">
          <mxGeometry x="-273.95" y="602.75" width="27.91" height="16.75" as="geometry" />
        </mxCell>
        <mxCell id="filIzlQRj2zayBFvOBdH-78" value="Да" style="text;html=1;strokeColor=none;fillColor=none;align=center;verticalAlign=middle;whiteSpace=wrap;rounded=0;container=0;" vertex="1" parent="1">
          <mxGeometry x="-222.5" y="629.5" width="60" height="30" as="geometry" />
        </mxCell>
        <mxCell id="filIzlQRj2zayBFvOBdH-79" value="" style="endArrow=classic;html=1;rounded=0;exitX=0;exitY=0.5;exitDx=0;exitDy=0;exitPerimeter=0;entryX=0;entryY=0.5;entryDx=0;entryDy=0;" edge="1" parent="1" target="filIzlQRj2zayBFvOBdH-160">
          <mxGeometry width="50" height="50" relative="1" as="geometry">
            <mxPoint x="-170" y="639.49" as="sourcePoint" />
            <mxPoint x="-125" y="639.99" as="targetPoint" />
          </mxGeometry>
        </mxCell>
        <mxCell id="filIzlQRj2zayBFvOBdH-92" value="" style="endArrow=classic;html=1;rounded=0;entryX=1;entryY=0.5;entryDx=0;entryDy=0;exitX=0.375;exitY=0.965;exitDx=0;exitDy=0;exitPerimeter=0;" edge="1" parent="1" source="filIzlQRj2zayBFvOBdH-160" target="filIzlQRj2zayBFvOBdH-169">
          <mxGeometry width="50" height="50" relative="1" as="geometry">
            <mxPoint x="-94" y="672" as="sourcePoint" />
            <mxPoint x="-190" y="682" as="targetPoint" />
            <Array as="points">
              <mxPoint x="-100" y="673" />
            </Array>
          </mxGeometry>
        </mxCell>
        <mxCell id="filIzlQRj2zayBFvOBdH-98" value="" style="endArrow=none;html=1;rounded=0;entryX=0.5;entryY=1;entryDx=0;entryDy=0;" edge="1" parent="1" target="filIzlQRj2zayBFvOBdH-43">
          <mxGeometry width="50" height="50" relative="1" as="geometry">
            <mxPoint x="-330" y="792" as="sourcePoint" />
            <mxPoint x="-375" y="666" as="targetPoint" />
          </mxGeometry>
        </mxCell>
        <mxCell id="filIzlQRj2zayBFvOBdH-99" value="" style="endArrow=none;html=1;rounded=0;entryX=0;entryY=0.5;entryDx=0;entryDy=0;entryPerimeter=0;" edge="1" parent="1">
          <mxGeometry width="50" height="50" relative="1" as="geometry">
            <mxPoint x="-330" y="562" as="sourcePoint" />
            <mxPoint x="-330" y="377.5" as="targetPoint" />
          </mxGeometry>
        </mxCell>
        <mxCell id="filIzlQRj2zayBFvOBdH-101" value="" style="endArrow=none;html=1;rounded=0;" edge="1" parent="1" source="filIzlQRj2zayBFvOBdH-27">
          <mxGeometry width="50" height="50" relative="1" as="geometry">
            <mxPoint x="-440" y="462" as="sourcePoint" />
            <mxPoint x="-330" y="378" as="targetPoint" />
          </mxGeometry>
        </mxCell>
        <mxCell id="filIzlQRj2zayBFvOBdH-102" value="" style="endArrow=none;html=1;rounded=0;entryX=0.5;entryY=1;entryDx=0;entryDy=0;" edge="1" parent="1">
          <mxGeometry width="50" height="50" relative="1" as="geometry">
            <mxPoint x="-30" y="522" as="sourcePoint" />
            <mxPoint x="-30" y="496" as="targetPoint" />
          </mxGeometry>
        </mxCell>
        <mxCell id="filIzlQRj2zayBFvOBdH-108" value="" style="endArrow=none;html=1;rounded=0;entryX=0.391;entryY=0.962;entryDx=0;entryDy=0;entryPerimeter=0;" edge="1" parent="1" target="filIzlQRj2zayBFvOBdH-66">
          <mxGeometry width="50" height="50" relative="1" as="geometry">
            <mxPoint x="-263" y="642" as="sourcePoint" />
            <mxPoint x="-260" y="622" as="targetPoint" />
            <Array as="points" />
          </mxGeometry>
        </mxCell>
        <mxCell id="filIzlQRj2zayBFvOBdH-109" value="" style="endArrow=none;html=1;rounded=0;" edge="1" parent="1">
          <mxGeometry width="50" height="50" relative="1" as="geometry">
            <mxPoint x="-230" y="642" as="sourcePoint" />
            <mxPoint x="-260" y="642" as="targetPoint" />
            <Array as="points" />
          </mxGeometry>
        </mxCell>
        <mxCell id="filIzlQRj2zayBFvOBdH-112" value="&lt;font style=&quot;vertical-align: inherit;&quot;&gt;&lt;font style=&quot;vertical-align: inherit;&quot;&gt;(Нет)&lt;/font&gt;&lt;/font&gt;" style="text;html=1;strokeColor=none;fillColor=none;align=center;verticalAlign=middle;whiteSpace=wrap;rounded=0;container=0;" vertex="1" parent="1">
          <mxGeometry x="-327.9" y="572" width="53.95" height="20.75" as="geometry" />
        </mxCell>
        <mxCell id="filIzlQRj2zayBFvOBdH-115" value="" style="endArrow=classic;html=1;rounded=0;entryX=-0.093;entryY=0.5;entryDx=0;entryDy=0;entryPerimeter=0;exitX=0.5;exitY=1;exitDx=0;exitDy=0;" edge="1" parent="1" source="filIzlQRj2zayBFvOBdH-112" target="filIzlQRj2zayBFvOBdH-169">
          <mxGeometry width="50" height="50" relative="1" as="geometry">
            <mxPoint x="-320" y="662.5" as="sourcePoint" />
            <mxPoint x="-276.04" y="662.5" as="targetPoint" />
            <Array as="points">
              <mxPoint x="-300" y="672" />
            </Array>
          </mxGeometry>
        </mxCell>
        <mxCell id="filIzlQRj2zayBFvOBdH-116" value="" style="endArrow=classic;html=1;rounded=0;exitX=0.75;exitY=1;exitDx=0;exitDy=0;entryX=0.247;entryY=-0.045;entryDx=0;entryDy=0;entryPerimeter=0;" edge="1" parent="1" source="filIzlQRj2zayBFvOBdH-169" target="filIzlQRj2zayBFvOBdH-47">
          <mxGeometry width="50" height="50" relative="1" as="geometry">
            <mxPoint x="-125" y="738.6400000000001" as="sourcePoint" />
            <mxPoint x="-205" y="722" as="targetPoint" />
            <Array as="points">
              <mxPoint x="-203" y="700" />
            </Array>
          </mxGeometry>
        </mxCell>
        <mxCell id="filIzlQRj2zayBFvOBdH-128" value="&lt;font style=&quot;vertical-align: inherit;&quot;&gt;&lt;font style=&quot;vertical-align: inherit;&quot;&gt;Конец&lt;/font&gt;&lt;/font&gt;" style="text;html=1;strokeColor=none;fillColor=none;align=center;verticalAlign=middle;whiteSpace=wrap;rounded=0;container=0;" vertex="1" parent="1">
          <mxGeometry x="-200" y="752" width="60" height="30" as="geometry" />
        </mxCell>
        <mxCell id="filIzlQRj2zayBFvOBdH-47" value="" style="ellipse;whiteSpace=wrap;html=1;aspect=fixed;container=0;" vertex="1" parent="1">
          <mxGeometry x="-210" y="772" width="26.669999999999995" height="26.669999999999995" as="geometry" />
        </mxCell>
        <mxCell id="filIzlQRj2zayBFvOBdH-48" value="" style="shape=waypoint;sketch=0;fillStyle=solid;size=6;pointerEvents=1;points=[];fillColor=none;resizable=0;rotatable=0;perimeter=centerPerimeter;snapToPoint=1;container=0;" vertex="1" parent="1">
          <mxGeometry x="-205.56000000000003" y="775.7570303712037" width="20" height="20" as="geometry" />
        </mxCell>
        <mxCell id="filIzlQRj2zayBFvOBdH-141" value="" style="endArrow=none;dashed=1;html=1;dashPattern=1 3;strokeWidth=2;rounded=0;" edge="1" parent="1">
          <mxGeometry width="50" height="50" relative="1" as="geometry">
            <mxPoint x="-10" y="460" as="sourcePoint" />
            <mxPoint x="-15" y="192" as="targetPoint" />
          </mxGeometry>
        </mxCell>
        <mxCell id="filIzlQRj2zayBFvOBdH-142" value="" style="endArrow=none;dashed=1;html=1;dashPattern=1 3;strokeWidth=2;rounded=0;entryX=0.5;entryY=1;entryDx=0;entryDy=0;" edge="1" parent="1">
          <mxGeometry width="50" height="50" relative="1" as="geometry">
            <mxPoint x="-158" y="240" as="sourcePoint" />
            <mxPoint x="-158.05999999999995" y="195" as="targetPoint" />
          </mxGeometry>
        </mxCell>
        <mxCell id="filIzlQRj2zayBFvOBdH-143" value="" style="endArrow=none;dashed=1;html=1;dashPattern=1 3;strokeWidth=2;rounded=0;entryX=0.588;entryY=0.932;entryDx=0;entryDy=0;entryPerimeter=0;" edge="1" parent="1">
          <mxGeometry width="50" height="50" relative="1" as="geometry">
            <mxPoint x="-272" y="240" as="sourcePoint" />
            <mxPoint x="-272.03999999999996" y="183.76533333333327" as="targetPoint" />
          </mxGeometry>
        </mxCell>
        <mxCell id="filIzlQRj2zayBFvOBdH-150" value="Библиотекарь" style="verticalAlign=top;align=left;spacingTop=8;spacingLeft=2;spacingRight=12;shape=cube;size=10;direction=south;fontStyle=4;html=1;whiteSpace=wrap;" vertex="1" parent="1">
          <mxGeometry x="-200" y="165" width="100" height="40" as="geometry" />
        </mxCell>
        <mxCell id="filIzlQRj2zayBFvOBdH-151" value="Бухгалтер" style="verticalAlign=top;align=left;spacingTop=8;spacingLeft=2;spacingRight=12;shape=cube;size=10;direction=south;fontStyle=4;html=1;whiteSpace=wrap;" vertex="1" parent="1">
          <mxGeometry x="-60" y="160" width="80" height="40" as="geometry" />
        </mxCell>
        <mxCell id="filIzlQRj2zayBFvOBdH-152" value="Определение&lt;br&gt;наличия&lt;br&gt;книг" style="rounded=0;whiteSpace=wrap;html=1;" vertex="1" parent="1">
          <mxGeometry x="-210.83999999999997" y="242" width="90" height="42" as="geometry" />
        </mxCell>
        <mxCell id="filIzlQRj2zayBFvOBdH-153" value="Выбор книг" style="rounded=0;whiteSpace=wrap;html=1;" vertex="1" parent="1">
          <mxGeometry x="-320" y="242" width="70" height="28" as="geometry" />
        </mxCell>
        <mxCell id="filIzlQRj2zayBFvOBdH-156" value="Создание заказа" style="rounded=0;whiteSpace=wrap;html=1;" vertex="1" parent="1">
          <mxGeometry x="-185" y="464" width="70" height="30" as="geometry" />
        </mxCell>
        <mxCell id="filIzlQRj2zayBFvOBdH-158" value="Оплата счёта" style="rounded=0;whiteSpace=wrap;html=1;" vertex="1" parent="1">
          <mxGeometry x="-302.5" y="496" width="80" height="32" as="geometry" />
        </mxCell>
        <mxCell id="filIzlQRj2zayBFvOBdH-160" value="Подтверждение" style="rounded=0;whiteSpace=wrap;html=1;" vertex="1" parent="1">
          <mxGeometry x="-80" y="620" width="100" height="29.5" as="geometry" />
        </mxCell>
        <mxCell id="filIzlQRj2zayBFvOBdH-161" value="" style="endArrow=none;html=1;rounded=0;entryX=0.5;entryY=1;entryDx=0;entryDy=0;" edge="1" parent="1">
          <mxGeometry width="50" height="50" relative="1" as="geometry">
            <mxPoint x="-315" y="710" as="sourcePoint" />
            <mxPoint x="-315" y="592.75" as="targetPoint" />
            <Array as="points" />
          </mxGeometry>
        </mxCell>
        <mxCell id="filIzlQRj2zayBFvOBdH-163" value="" style="endArrow=classic;html=1;rounded=0;exitX=0;exitY=0.5;exitDx=0;exitDy=0;exitPerimeter=0;" edge="1" parent="1">
          <mxGeometry width="50" height="50" relative="1" as="geometry">
            <mxPoint x="-315" y="710" as="sourcePoint" />
            <mxPoint x="-270" y="710.5" as="targetPoint" />
          </mxGeometry>
        </mxCell>
        <mxCell id="filIzlQRj2zayBFvOBdH-165" value="Возврат книг-(и)" style="rounded=0;whiteSpace=wrap;html=1;" vertex="1" parent="1">
          <mxGeometry x="-270.84" y="700" width="50.84" height="26" as="geometry" />
        </mxCell>
        <mxCell id="filIzlQRj2zayBFvOBdH-169" value="Отмена заказа" style="rounded=0;whiteSpace=wrap;html=1;" vertex="1" parent="1">
          <mxGeometry x="-273.95" y="659.5" width="60" height="26" as="geometry" />
        </mxCell>
        <mxCell id="filIzlQRj2zayBFvOBdH-175" value="" style="shape=image;html=1;verticalLabelPosition=bottom;verticalAlign=top;imageAspect=1;aspect=fixed;image=img/clipart/Gear_128x128.png" vertex="1" parent="1">
          <mxGeometry x="-174.65" y="367.15999999999997" width="17.63" height="20.68" as="geometry" />
        </mxCell>
        <mxCell id="filIzlQRj2zayBFvOBdH-157" value="Оформление счёта" style="rounded=0;whiteSpace=wrap;html=1;" vertex="1" parent="1">
          <mxGeometry x="-80" y="464" width="80" height="32" as="geometry" />
        </mxCell>
        <mxCell id="filIzlQRj2zayBFvOBdH-184" value="Посетитель" style="verticalAlign=top;align=left;spacingTop=8;spacingLeft=2;spacingRight=12;shape=cube;size=10;direction=south;fontStyle=4;html=1;whiteSpace=wrap;" vertex="1" parent="1">
          <mxGeometry x="-350" y="160" width="95" height="35" as="geometry" />
        </mxCell>
        <mxCell id="filIzlQRj2zayBFvOBdH-186" value="" style="endArrow=none;dashed=1;html=1;dashPattern=1 3;strokeWidth=2;rounded=0;" edge="1" parent="1" target="filIzlQRj2zayBFvOBdH-182">
          <mxGeometry width="50" height="50" relative="1" as="geometry">
            <mxPoint x="-220" y="810" as="sourcePoint" />
            <mxPoint x="-205" y="165" as="targetPoint" />
          </mxGeometry>
        </mxCell>
        <mxCell id="filIzlQRj2zayBFvOBdH-188" value="" style="endArrow=none;html=1;rounded=0;entryX=0.414;entryY=0.001;entryDx=0;entryDy=0;entryPerimeter=0;dashed=1;" edge="1" parent="1" target="filIzlQRj2zayBFvOBdH-182">
          <mxGeometry width="50" height="50" relative="1" as="geometry">
            <mxPoint x="-216" y="810" as="sourcePoint" />
            <mxPoint x="-230" y="110" as="targetPoint" />
          </mxGeometry>
        </mxCell>
        <mxCell id="filIzlQRj2zayBFvOBdH-192" value="" style="endArrow=none;html=1;rounded=0;entryX=0.414;entryY=0.001;entryDx=0;entryDy=0;entryPerimeter=0;dashed=1;" edge="1" parent="1">
          <mxGeometry width="50" height="50" relative="1" as="geometry">
            <mxPoint x="-86.34" y="809" as="sourcePoint" />
            <mxPoint x="-86.34" y="110" as="targetPoint" />
          </mxGeometry>
        </mxCell>
        <mxCell id="filIzlQRj2zayBFvOBdH-194" value="Выдача книги" style="rounded=0;whiteSpace=wrap;html=1;" vertex="1" parent="1">
          <mxGeometry x="-190" y="685.5" width="100" height="29.5" as="geometry" />
        </mxCell>
        <mxCell id="filIzlQRj2zayBFvOBdH-196" value="" style="endArrow=classic;html=1;rounded=0;entryX=1;entryY=0.75;entryDx=0;entryDy=0;exitX=0.5;exitY=1;exitDx=0;exitDy=0;" edge="1" parent="1" source="filIzlQRj2zayBFvOBdH-160" target="filIzlQRj2zayBFvOBdH-194">
          <mxGeometry width="50" height="50" relative="1" as="geometry">
            <mxPoint x="-40" y="650" as="sourcePoint" />
            <mxPoint x="15" y="701" as="targetPoint" />
            <Array as="points">
              <mxPoint x="-30" y="708" />
            </Array>
          </mxGeometry>
        </mxCell>
        <mxCell id="filIzlQRj2zayBFvOBdH-197" value="" style="endArrow=classic;html=1;rounded=0;exitX=0.5;exitY=1;exitDx=0;exitDy=0;" edge="1" parent="1">
          <mxGeometry width="50" height="50" relative="1" as="geometry">
            <mxPoint x="-120.84" y="714" as="sourcePoint" />
            <mxPoint x="-180" y="786" as="targetPoint" />
            <Array as="points">
              <mxPoint x="-120" y="780" />
            </Array>
          </mxGeometry>
        </mxCell>
      </root>
    </mxGraphModel>
  </diagram>
</mxfile>
